<svg id="Layer_1" data-name="Layer 1" xmlns="http://www.w3.org/2000/svg" viewBox="0 0 216 216"><defs><style>.cls-1{fill:#1e69b3;}</style></defs><title>39337 (9-20) - DC_Global Rates Bar SVG Icons (9-20)</title><path class="cls-1" d="M108,7A101,101,0,1,1,7,108,101.12,101.12,0,0,1,108,7m0-7A108,108,0,1,0,216,108,108,108,0,0,0,108,0Z"/><g id="Group_5467" data-name="Group 5467"><g id="Group_3615" data-name="Group 3615"><g id="Group_5467-2" data-name="Group 5467-2"><g id="Group_2702" data-name="Group 2702"><g id="Group_2701" data-name="Group 2701"><path id="Path_972" data-name="Path 972" class="cls-1" d="M90.6,122.78v51.86h73.9V122.78Zm64,42.35h-52v-5.78H154.6Zm0-12.78h-52v-5.78H154.6Zm0-12.88h-52v-5.78H154.6Z"/></g></g></g></g><g id="Group_3947" data-name="Group 3947"><g id="Group_3946" data-name="Group 3946"><path id="Union_1" data-name="Union 1" class="cls-1" d="M63.11,167.68a5.86,5.86,0,0,1-5.88-5.83V104.33H45.48a3.27,3.27,0,0,1-3.08-2,3.14,3.14,0,0,1,.67-3.55L102,42.29a3.46,3.46,0,0,1,2.35-.93,3.32,3.32,0,0,1,2.34,1l25.71,24.17V56.18h19.67V85.05l14.68,13.79a3.24,3.24,0,0,1-.06,4.58,3.2,3.2,0,0,1-2.28.92H151.93v12.41H84.28v50.93Z"/></g></g></g></svg>