<svg id="Layer_1" data-name="Layer 1" xmlns="http://www.w3.org/2000/svg" viewBox="0 0 216 216"><defs><style>.cls-1{fill:#1e69b3;}</style></defs><title>39337 (9-20) - DC_Global Rates Bar SVG Icons (9-20)</title><path class="cls-1" d="M108,7A101,101,0,1,1,7,108,101.12,101.12,0,0,1,108,7m0-7A108,108,0,1,0,216,108,108,108,0,0,0,108,0Z"/><g id="car"><path id="Path_2044" data-name="Path 2044" class="cls-1" d="M172.64,85h-4.18a5.72,5.72,0,0,0-5.33,3.81l-1.9,3.8h-1.9L157.05,69A14.37,14.37,0,0,0,144.12,55h-73A13.74,13.74,0,0,0,58.18,68.64L55.9,92.22H54.76l-1.9-3.8a5.72,5.72,0,0,0-5.33-3.81H43.35c-2.66.38-4.56,2.67-4.18,5v1.9a4.21,4.21,0,0,0,4.18,4.94H55.52l-.38,3.8s-13.69,12.17-13.69,16c0,2.66-.76,12.16,0,19.77a4.88,4.88,0,0,0,1.52,3.8v14.07a7.22,7.22,0,0,0,7.22,7.23h11a7.23,7.23,0,0,0,7.23-7.23V142.41h80.61v11.41a7.23,7.23,0,0,0,7.23,7.23h11a7.22,7.22,0,0,0,7.22-7.23V137.09h0v-.76a114.56,114.56,0,0,0-.38-19.77c0-3.81-13.69-16-13.69-16h0l-.38-3.42h12.55c2.66-.38,4.56-2.66,4.18-4.94v-1.9a4.3,4.3,0,0,0-3.42-4.95A1.18,1.18,0,0,0,172.64,85ZM68.83,136.71H56.66a6.82,6.82,0,0,1-6.85-6.84h0V123H63.12a7.4,7.4,0,0,1,6.47,4.56l1.9,5.33a3.33,3.33,0,0,1-1.9,3.8Zm62.36-.76H80.24L76.81,125.3l58.18-.38ZM166.94,123v6.85a6.82,6.82,0,0,1-6.85,6.84H147.92a2.6,2.6,0,0,1-2.66-2.66v-1.14l1.9-5.33a7,7,0,0,1,6.47-4.56ZM64.26,69.78a7.9,7.9,0,0,1,7.23-8h72.63a7.9,7.9,0,0,1,7.23,8L154,94.12H61.22Z"/></g></svg>