<svg id="Layer_1" data-name="Layer 1" xmlns="http://www.w3.org/2000/svg" viewBox="0 0 216 216"><defs><style>.cls-1{fill:#1e69b3;}</style></defs><title>39337 (9-20) - DC_Global Rates Bar SVG Icons (9-20)</title><path class="cls-1" d="M108,7A101,101,0,1,1,7,108,101.12,101.12,0,0,1,108,7m0-7A108,108,0,1,0,216,108,108,108,0,0,0,108,0Z"/><g id="document-star"><g id="document-star-2"><g id="Group_3831" data-name="Group 3831"><path id="Path_1463" data-name="Path 1463" class="cls-1" d="M153,79.19v-.46h0c0-.09-.09-.18-.09-.37v-.09c0-.09-.1-.18-.1-.28h0c-.09-.09-.09-.18-.18-.28a.09.09,0,0,0-.09-.09h0l-.27-.28-31.17-30.9-.28-.28a.09.09,0,0,1-.1-.08h0c-.09-.09-.18-.09-.28-.18h0a.31.31,0,0,0-.27-.1h-.09c-.09,0-.18-.09-.37-.09H68.64A5.47,5.47,0,0,0,63,51V164.66a5.6,5.6,0,0,0,5.57,5.64h78.79a5.6,5.6,0,0,0,5.64-5.56V79.19ZM75.67,88.44h62.44v5.64H75.67Zm0,12.67h62.44v5.64H75.67Zm0,12.57h62.44v5.65H75.67ZM99.9,132H75.67v-4.17H99.9Zm33.39,27.93-10.63-5.64L112,159.93l2-11.84-8.6-8.42,11.93-1.75,5.37-10.82,5.36,10.82L140,139.67l-8.6,8.42ZM121.92,76.6V55l21.64,21.54H121.92Z"/></g></g></g></svg>