<svg id="Layer_1" data-name="Layer 1" xmlns="http://www.w3.org/2000/svg" viewBox="0 0 216 216"><defs><style>.cls-1{fill:#1e69b3;}</style></defs><title>39337 (9-20) - DC_Global Rates Bar SVG Icons (9-20)</title><path class="cls-1" d="M108,7A101,101,0,1,1,7,108,101.12,101.12,0,0,1,108,7m0-7A108,108,0,1,0,216,108,108,108,0,0,0,108,0Z"/><g id="credit-card"><g id="Group_7674" data-name="Group 7674"><g id="Group_7673" data-name="Group 7673"><path id="Path_4043" data-name="Path 4043" class="cls-1" d="M174.78,69.09A5.87,5.87,0,0,0,169,63.21H46.89A5.81,5.81,0,0,0,41.12,69v6.12H174.78Z"/><path class="cls-1" d="M41.12,85.11v62.8a5.68,5.68,0,0,0,5.77,4.87H169.11a5.68,5.68,0,0,0,5.77-4.87V85.11ZM53.56,96.85H84.91v5.08H53.56ZM72.3,138.51a3,3,0,0,1-3,3H56.54a3,3,0,0,1-3-3v-8.2a3,3,0,0,1,3-3H69.33a3,3,0,0,1,3,3Zm89.81-26.74H53.56V106.7H162.11Z"/></g></g></g></svg>