<?xml version="1.0" encoding="utf-8"?>
<!-- Generator: Adobe Illustrator 23.0.3, SVG Export Plug-In . SVG Version: 6.00 Build 0)  -->
<svg version="1.1" id="Layer_1" xmlns="http://www.w3.org/2000/svg" xmlns:xlink="http://www.w3.org/1999/xlink" x="0px" y="0px"
	 viewBox="0 0 32 32" style="enable-background:new 0 0 32 32;" xml:space="preserve">
<style type="text/css">
	.st0{fill:#FFFFFF;}
</style>
<title>calculator</title>
<path class="st0" d="M24.6,1.8H7.4c-1.1,0-1.9,0.9-1.9,1.9v25c0,1.1,0.9,1.9,1.9,1.9l0,0h17.2c1.1,0,1.9-0.9,1.9-1.9V3.7l0,0
	C26.5,2.6,25.7,1.8,24.6,1.8z M7.9,4.8h16.2v6.6H7.9C7.9,11.4,7.9,4.8,7.9,4.8z M10.1,27.1c-1.1,0-1.9-0.9-1.9-1.9s0.9-1.9,1.9-1.9
	s1.9,0.9,1.9,1.9S11.2,27.1,10.1,27.1z M10.1,22.3c-1.1,0-1.9-0.9-1.9-1.9s0.9-1.9,1.9-1.9s1.9,0.9,1.9,1.9S11.2,22.3,10.1,22.3z
	 M10.1,17.5c-1.1,0-1.9-0.9-1.9-1.9s0.9-1.9,1.9-1.9s1.9,0.9,1.9,1.9C12,16.6,11.2,17.5,10.1,17.5z M15.9,27.1
	c-1.1,0-1.9-0.9-1.9-1.9c0-1.1,0.9-1.9,1.9-1.9s1.9,0.9,1.9,1.9l0,0C17.8,26.3,17,27.1,15.9,27.1C15.9,27.1,15.9,27.1,15.9,27.1
	L15.9,27.1z M15.9,22.3c-1.1,0-1.9-0.9-1.9-1.9c0-1.1,0.9-1.9,1.9-1.9s1.9,0.9,1.9,1.9l0,0C17.8,21.4,17,22.3,15.9,22.3
	C15.9,22.3,15.9,22.3,15.9,22.3L15.9,22.3z M15.9,17.5c-1.1,0-1.9-0.9-1.9-1.9c0-1.1,0.9-1.9,1.9-1.9s1.9,0.9,1.9,1.9
	C17.8,16.6,17,17.5,15.9,17.5L15.9,17.5z M21.7,27.1c-1.1,0-1.9-0.9-1.9-1.9s0.9-1.9,1.9-1.9s1.9,0.9,1.9,1.9S22.8,27.1,21.7,27.1z
	 M21.7,22.3c-1.1,0-1.9-0.9-1.9-1.9s0.9-1.9,1.9-1.9s1.9,0.9,1.9,1.9S22.8,22.3,21.7,22.3z M21.7,17.5c-1.1,0-1.9-0.9-1.9-1.9
	s0.9-1.9,1.9-1.9s1.9,0.9,1.9,1.9C23.6,16.6,22.8,17.5,21.7,17.5z"/>
</svg>
