<?xml version="1.0" encoding="utf-8"?>
<!-- Generator: Adobe Illustrator 23.0.3, SVG Export Plug-In . SVG Version: 6.00 Build 0)  -->
<svg version="1.1" id="Layer_1" xmlns="http://www.w3.org/2000/svg" xmlns:xlink="http://www.w3.org/1999/xlink" x="0px" y="0px"
	 viewBox="0 0 32 32" style="enable-background:new 0 0 32 32;" xml:space="preserve">
<style type="text/css">
	.st0{fill:#FFFFFF;}
</style>
<title>accounts</title>
<path class="st0" d="M30.2,17C30.2,17,30.1,17,30.2,17c-0.6,2.6-2.6,4.8-5.5,6.3l-1.2,3.2c0,0-1.6,0.6-3.2,0.2l-0.1-1.9
	c-1,0.2-2.1,0.3-3.2,0.3c-0.9,0-1.7-0.1-2.5-0.2l-0.1,1.8c-1.5,0.4-3.2-0.2-3.2-0.2l-1-2.8c-1.6-0.7-2.9-1.6-4-2.7v0
	c-3.6-2-5.1-1.8-5.1-1.8L0,15.4c3.1-0.4,4.3-2.6,4.3-2.6c0,0,0,0,0,0c0.5-1.2,1.3-2.4,2.4-3.3l0.2-4.4l2.9,2.3
	c2.1-1,4.6-1.6,7.2-1.6c6.4,0,11.7,3.3,13,7.6c0.1,0,0.1,0,0.2,0c1,0,1.8,0.8,1.8,1.7C32,16.2,31.2,17,30.2,17L30.2,17z M20.5,16.7
	c0-0.3-0.1-0.6-0.3-0.9s-0.5-0.6-0.9-0.9c-0.4-0.3-0.9-0.5-1.7-0.7c-0.1,0-0.3-0.1-0.4-0.1C17.2,14,17.1,14,17,14v-2.6
	c0.3,0,0.6,0.1,0.8,0.4s0.4,0.6,0.4,1h2.1c0-0.5-0.1-0.9-0.3-1.3s-0.4-0.7-0.7-0.9c-0.3-0.2-0.6-0.4-1-0.6S17.4,9.8,17,9.7V8.6h-0.9
	v1.1c-0.4,0-0.9,0.1-1.3,0.3c-0.4,0.1-0.8,0.3-1.1,0.6s-0.6,0.6-0.7,0.9c-0.2,0.4-0.3,0.8-0.3,1.3c0,0.5,0.1,0.9,0.2,1.2
	s0.4,0.6,0.7,0.8c0.3,0.2,0.6,0.4,0.9,0.5s0.7,0.2,1.1,0.3c0.1,0,0.2,0,0.3,0.1s0.1,0,0.2,0.1v3c-0.4-0.1-0.8-0.3-1.1-0.6
	s-0.4-0.8-0.4-1.3h-2c0.1,1.1,0.4,2,1.1,2.6s1.5,0.9,2.5,1v1.2H17v-1.2c0.7,0,1.3-0.2,1.8-0.4s0.8-0.5,1.1-0.8s0.5-0.6,0.6-0.9
	s0.2-0.6,0.2-0.8C20.6,17.3,20.6,17,20.5,16.7L20.5,16.7z M18,18.5c-0.1,0.1-0.3,0.2-0.5,0.3c-0.2,0.1-0.4,0.1-0.5,0.1v-2.8
	c0.6,0.2,1,0.3,1.2,0.5s0.4,0.5,0.4,0.8c0,0.2,0,0.4-0.1,0.6C18.3,18.2,18.2,18.4,18,18.5z M14.8,12.6c0-0.2,0-0.4,0.1-0.5
	s0.2-0.3,0.3-0.4c0.1-0.1,0.3-0.2,0.4-0.2s0.3-0.1,0.5-0.1v2.4c-0.5-0.1-0.8-0.2-1-0.4S14.8,12.9,14.8,12.6L14.8,12.6z"/>
</svg>
